HIERARCHY
ROOT Hips
{
	OFFSET 0.000000 0.000000 0.000000
	CHANNELS 6 Xposition Yposition Zposition Xrotation Yrotation Zrotation
	JOINT LeftUpLeg_virtual
	{
		OFFSET 0.000000 0.000000 0.000000
		CHANNELS 3 Xrotation Yrotation Zrotation
		JOINT LeftUpLeg
		{
			OFFSET 10.205400 -3.823500 0.155100
			CHANNELS 3 Xrotation Yrotation Zrotation
			JOINT LeftLeg
			{
				OFFSET 0.708757 -12.982077 0.567790
				CHANNELS 3 Xrotation Yrotation Zrotation
				JOINT LeftFoot
				{
					OFFSET -0.708756 -10.717838 -2.184338
					CHANNELS 3 Xrotation Yrotation Zrotation
					JOINT LeftToeBase
					{
						OFFSET 0.108149 -7.191104 7.560241
						CHANNELS 3 Xrotation Yrotation Zrotation
						JOINT LeftToe_End
						{
							OFFSET 0.070230 0.081724 4.490308
							CHANNELS 3 Xrotation Yrotation Zrotation
							End Site
							{
								OFFSET 0 0 0
							}
						}
					}
				}
			}
		}
	}
	JOINT RightUpLeg_virtual
	{
		OFFSET 0.000000 0.000000 0.000000
		CHANNELS 3 Xrotation Yrotation Zrotation
		JOINT RightUpLeg
		{
			OFFSET -10.205400 -3.823500 0.005500
			CHANNELS 3 Xrotation Yrotation Zrotation
			JOINT RightLeg
			{
				OFFSET -0.708756 -12.982134 0.610632
				CHANNELS 3 Xrotation Yrotation Zrotation
				JOINT RightFoot
				{
					OFFSET 0.708754 -10.717769 -1.945823
					CHANNELS 3 Xrotation Yrotation Zrotation
					JOINT RightToeBase
					{
						OFFSET -0.108140 -7.191069 7.372968
						CHANNELS 3 Xrotation Yrotation Zrotation
						JOINT RightToe_End
						{
							OFFSET -0.070227 0.081735 4.479403
							CHANNELS 3 Xrotation Yrotation Zrotation
							End Site
							{
								OFFSET 0 0 0
							}
						}
					}
				}
			}
		}
	}
	JOINT Spine_virtual
	{
		OFFSET 0.000000 0.000000 0.000000
		CHANNELS 3 Xrotation Yrotation Zrotation
		JOINT Spine
		{
			OFFSET 0.000000 6.876099 0.125700
			CHANNELS 3 Xrotation Yrotation Zrotation
			JOINT Spine1
			{
				OFFSET 0.000000 5.730043 0.104720
				CHANNELS 3 Xrotation Yrotation Zrotation
				JOINT Spine1_split
				{
					OFFSET 0.000000 5.730043 0.104720
					CHANNELS 3 Xrotation Yrotation Zrotation
					JOINT Spine2
					{
						OFFSET 0.000000 5.730043 0.104720
						CHANNELS 3 Xrotation Yrotation Zrotation
						JOINT Neck_virtual
						{
							OFFSET 0.000000 0.000000 0.000000
							CHANNELS 3 Xrotation Yrotation Zrotation
							JOINT Neck
							{
								OFFSET 0.000000 10.314075 0.188496
								CHANNELS 3 Xrotation Yrotation Zrotation
								JOINT Head
								{
									OFFSET 0.000000 7.643700 -2.377400
									CHANNELS 3 Xrotation Yrotation Zrotation
									JOINT HeadTop_End
									{
										OFFSET 0.000000 43.788605 -13.619600
										CHANNELS 3 Xrotation Yrotation Zrotation
										End Site
										{
											OFFSET 0 0 0
										}
									}
								}
							}
						}
						JOINT LeftShoulder_virtual
						{
							OFFSET 0.000000 0.000000 0.000000
							CHANNELS 3 Xrotation Yrotation Zrotation
							JOINT LeftShoulder
							{
								OFFSET 2.196100 4.412489 0.087492
								CHANNELS 3 Xrotation Yrotation Zrotation
								JOINT LeftShoulder_split
								{
									OFFSET 2.196100 4.412489 0.087492
									CHANNELS 3 Xrotation Yrotation Zrotation
									JOINT LeftArm
									{
										OFFSET 8.771219 -2.981674 -0.026999
										CHANNELS 3 Xrotation Yrotation Zrotation
										JOINT LeftForeArm
										{
											OFFSET 8.512804 0.000000 -0.000000
											CHANNELS 3 Xrotation Yrotation Zrotation
											JOINT LeftHand
											{
												OFFSET 18.484802 0.000000 -0.000000
												CHANNELS 3 Xrotation Yrotation Zrotation
												End Site
												{
													OFFSET 0 0 0
												}
											}
										}
									}
								}
							}
						}
						JOINT RightShoulder_virtual
						{
							OFFSET 0.000000 0.000000 0.000000
							CHANNELS 3 Xrotation Yrotation Zrotation
							JOINT RightShoulder
							{
								OFFSET -2.196100 4.412496 0.070690
								CHANNELS 3 Xrotation Yrotation Zrotation
								JOINT RightShoulder_split
								{
									OFFSET -2.196100 4.412496 0.070690
									CHANNELS 3 Xrotation Yrotation Zrotation
									JOINT RightArm
									{
										OFFSET -8.771282 -2.981682 -0.094208
										CHANNELS 3 Xrotation Yrotation Zrotation
										JOINT RightForeArm
										{
											OFFSET -8.494598 0.000000 0.000000
											CHANNELS 3 Xrotation Yrotation Zrotation
											JOINT RightHand
											{
												OFFSET -18.483803 0.000000 0.000001
												CHANNELS 3 Xrotation Yrotation Zrotation
												End Site
												{
													OFFSET 0 0 0
												}
											}
										}
									}
								}
							}
						}
					}
				}
			}
		}
	}
}
MOTION
Frames: 7
Frame Time: 0.03333333
0.747075 28.303898 -0.366901 0.000000 0.000000 0.000000 20.666196 -5.367928 -26.263939 -82.848945 -17.771133 21.611916 79.256525 -7.746635 11.146261 -15.793047 -0.200183 -9.466521 -4.991533 -0.183348 -0.567338 0.000000 0.000000 0.000000 21.105090 -2.228581 -28.424415 -9.732262 -22.402565 18.925962 19.865754 -7.431376 -0.399662 -8.439733 -10.878813 15.215899 -4.158487 1.048861 1.378324 0.000000 0.000000 0.000000 18.454049 -4.954632 -26.747914 7.339336 3.137881 -17.652812 6.419933 3.121077 -11.232968 2.025772 0.584983 0.025160 0.000000 0.000000 0.000000 6.949332 3.083961 -10.889703 -0.508165 3.024800 -5.916140 -7.348141 17.593276 -4.462083 0.000000 0.000000 0.000000 6.643421 3.617806 -10.858674 0.256340 -3.902735 16.023812 -1.937924 -0.575870 -2.605617 -55.200380 -45.268837 -95.751698 4.070302 -59.313889 2.628883 0.000000 0.000000 0.000000 7.358873 3.242594 -11.298324 0.317670 -3.866006 -0.926022 7.335300 3.788600 -1.768806 -1.911934 60.589502 18.718275 -2.449049 76.420569 1.884122 0.000000 0.000000 0.000000 
0.841094 28.383642 -0.370481 0.000000 0.000000 0.000000 20.726544 -5.721522 -25.653827 -82.414825 -16.631591 22.065928 79.155527 -7.869515 11.035636 -16.407588 0.043523 -9.288293 -4.831823 -0.251138 -0.575833 0.000000 0.000000 0.000000 21.070389 -2.607406 -27.759552 -10.612555 -22.673827 18.177317 20.298438 -7.643600 -0.372505 -7.776958 -10.652853 15.073958 -3.913583 1.085849 1.327831 0.000000 0.000000 0.000000 18.556695 -5.155297 -26.226350 7.517837 3.011240 -17.341546 6.487501 3.026481 -11.050818 2.138605 0.848513 -0.323501 0.000000 0.000000 0.000000 6.838452 3.029277 -10.709051 0.766240 2.585065 -4.831937 -4.807797 17.442015 -3.148769 0.000000 0.000000 0.000000 6.762444 3.458681 -10.706568 0.060471 -3.608523 16.564687 -1.508587 -0.526335 -2.352112 -54.343601 -45.235055 -94.970502 3.256130 -58.883368 2.161312 0.000000 0.000000 0.000000 7.466967 3.197466 -11.109829 0.386302 -3.257626 -1.665292 7.171909 3.795657 -1.560985 -2.517343 61.476566 20.326672 -2.125334 74.645293 1.565950 0.000000 0.000000 0.000000 
0.925959 28.469730 -0.373768 0.000000 0.000000 0.000000 20.741563 -6.079939 -25.032758 -81.904207 -15.605758 22.643247 79.102565 -7.950382 10.849106 -16.900096 0.359462 -9.243205 -4.712295 -0.308842 -0.631571 0.000000 0.000000 0.000000 21.008441 -2.881316 -27.097739 -11.538892 -22.836638 17.435234 20.763881 -7.895565 -0.358419 -7.227675 -10.412182 14.956502 -3.686099 1.125134 1.231953 0.000000 0.000000 0.000000 18.515818 -5.488488 -25.650145 7.748079 2.871024 -17.157090 6.487127 2.906633 -10.781071 2.205025 1.182918 -0.410793 0.000000 0.000000 0.000000 6.659606 2.937248 -10.436451 2.290509 2.276737 -3.688153 -2.348888 17.203947 -1.715764 0.000000 0.000000 0.000000 6.799863 3.270998 -10.497357 -0.138761 -3.331491 16.863006 -0.910678 -0.327173 -2.049454 -52.855972 -45.255047 -93.684077 2.973984 -58.449521 2.100213 0.000000 0.000000 0.000000 7.470688 3.137983 -10.829682 0.430626 -2.643228 -2.407593 6.894971 3.903681 -1.311677 -3.907040 61.862758 22.845837 -1.895677 72.640674 1.220374 0.000000 0.000000 0.000000 
0.990093 28.560497 -0.382622 0.000000 0.000000 0.000000 20.742864 -6.492035 -24.371735 -81.342506 -14.628426 23.341994 79.072690 -7.966078 10.591845 -17.203351 0.715804 -9.255074 -4.681231 -0.359433 -0.706010 0.000000 0.000000 0.000000 20.976457 -3.087945 -26.412272 -12.518436 -22.855109 16.743352 21.252195 -8.191584 -0.397440 -6.895737 -10.196349 14.780179 -3.419194 1.159246 1.128996 0.000000 0.000000 0.000000 18.408480 -5.956243 -25.002592 8.009290 2.750132 -17.080179 6.467064 2.768635 -10.453468 2.196119 1.387629 -0.266212 0.000000 0.000000 0.000000 6.532346 2.827952 -10.113920 3.909933 2.158774 -2.570444 -0.304095 16.997380 -0.266813 0.000000 0.000000 0.000000 6.817511 3.089027 -10.273182 -0.313443 -3.127852 16.918790 -0.306660 -0.093244 -1.735389 -50.895865 -45.609503 -91.771897 3.133565 -58.051390 2.360720 0.000000 0.000000 0.000000 7.420873 3.068414 -10.505684 0.462246 -2.054340 -3.031369 6.512457 3.984372 -1.012565 -5.524881 61.905071 25.596720 -1.717213 70.882474 0.865429 0.000000 0.000000 0.000000 
1.028043 28.660715 -0.412140 0.000000 0.000000 0.000000 20.754795 -6.953413 -23.631502 -80.707598 -13.636577 24.098663 78.966679 -7.916355 10.327742 -17.408469 1.085779 -9.303674 -4.688937 -0.404405 -0.763586 0.000000 0.000000 0.000000 21.034100 -3.271961 -25.664612 -13.599554 -22.756222 16.106935 21.779728 -8.529238 -0.517428 -6.812722 -10.031581 14.466137 -3.053239 1.185421 1.047667 0.000000 0.000000 0.000000 18.357310 -6.514997 -24.283042 8.277172 2.670463 -17.056284 6.484781 2.647322 -10.126526 2.056547 1.204722 0.032442 0.000000 0.000000 0.000000 6.515904 2.723466 -9.800434 5.396858 2.260200 -1.577341 1.146366 16.909662 1.072238 0.000000 0.000000 0.000000 6.885235 2.935653 -10.098393 -0.410277 -3.007751 16.777835 0.104234 0.044919 -1.326807 -48.731658 -46.394282 -89.325050 3.554013 -57.827141 2.813399 0.000000 0.000000 0.000000 7.404617 3.005639 -10.213786 0.528487 -1.563442 -3.429187 6.067007 3.872008 -0.811797 -6.933944 61.812112 28.091595 -1.566265 69.845159 0.594009 0.000000 0.000000 0.000000 
1.036748 28.764193 -0.461214 0.000000 0.000000 0.000000 20.821024 -7.422448 -22.785233 -79.966912 -12.577307 24.816487 78.602425 -7.806992 10.098591 -17.692616 1.469069 -9.422095 -4.601268 -0.443079 -0.784477 0.000000 0.000000 0.000000 21.181448 -3.497705 -24.806296 -14.885390 -22.612467 15.479727 22.320286 -8.896750 -0.720037 -6.883489 -9.913470 14.018696 -2.633493 1.193032 0.983382 0.000000 0.000000 0.000000 18.394432 -7.141047 -23.456227 8.524965 2.645852 -17.001936 6.586796 2.575993 -9.848527 1.977428 0.718545 0.274701 0.000000 0.000000 0.000000 6.622376 2.658035 -9.550580 6.605578 2.533557 -0.799057 2.027765 17.005962 2.177786 0.000000 0.000000 0.000000 7.055553 2.830504 -10.015288 -0.415625 -2.987316 16.543116 0.311054 -0.074488 -0.882038 -46.469148 -47.294545 -86.544043 3.966258 -58.120088 3.262077 0.000000 0.000000 0.000000 7.497756 2.966026 -10.011782 0.615122 -1.224768 -3.619695 5.725014 3.772864 -0.744849 -7.672580 61.805419 29.826654 -1.391188 69.584109 0.441958 0.000000 0.000000 0.000000 
1.017472 28.872749 -0.545210 0.000000 0.000000 0.000000 20.941155 -7.849238 -21.844101 -79.106131 -11.452412 25.425015 77.852757 -7.645756 9.939816 -18.129538 1.872231 -9.774842 -4.418380 -0.465577 -0.753122 0.000000 0.000000 0.000000 21.350485 -3.886561 -23.810123 -16.472509 -22.478235 14.841880 22.856267 -9.229973 -1.001828 -6.951966 -9.795538 13.573721 -2.302139 1.172401 0.908758 0.000000 0.000000 0.000000 18.577732 -7.816687 -22.510758 8.750091 2.661259 -16.848928 6.779567 2.585578 -9.646383 1.943236 0.249699 0.285570 0.000000 0.000000 0.000000 6.819998 2.665936 -9.374682 7.501746 2.851922 -0.292528 2.517513 17.232996 2.965823 0.000000 0.000000 0.000000 7.327467 2.811498 -10.023698 -0.311539 -3.030368 16.361114 0.357158 -0.409104 -0.593923 -44.489100 -47.884277 -83.936482 4.126308 -59.211210 3.535125 0.000000 0.000000 0.000000 7.733768 2.992722 -9.905239 0.754543 -1.037206 -3.621182 5.641881 3.718370 -0.923104 -7.747063 62.065089 30.803777 -1.115190 69.562922 0.377735 0.000000 0.000000 0.000000 
